<?xml version="1.0" encoding="utf-8" ?>
<svg baseProfile="full" height="200mm" version="1.1" viewBox="0,0,200,200" width="200mm" xmlns="http://www.w3.org/2000/svg" xmlns:ev="http://www.w3.org/2001/xml-events" xmlns:xlink="http://www.w3.org/1999/xlink"><defs /><rect fill="#1a1a1a" height="200" width="200" x="0" y="0" /><rect fill="#1a1a1a" height="200" width="180" x="10" y="0" /><text alignment-baseline="middle" fill="#e1ed5e" style="dominant-baseline: central; font-size:9.0px; font-family:Arial;" text-anchor="middle" x="100.0" y="100.0">2025</text><line stroke="#e1ed5e" stroke-width="0.3" x1="100.0" x2="100.0" y1="15.0" y2="10.0" /><path d="M 100.0 14.0 a86.0,86.0 0 0,1 42.46469731375804,11.215312516191453" fill="none" id="id25" stroke="none" /><text fill="#e1ed5e" style="font-size:6.75px; font-family:Arial;" text-anchor="middle"><textPath startOffset="22.20632615414155" xlink:href="#id25">January</textPath></text><path d="M 100.72285384407766 79.0124445844662 l 0.8434555806630514 -24.489142424488772 a45.50366327722138,45.50366327722138 0 0,0 0.7825745310684483,0.033699305497062036 l -1.2648709441208312 24.47099539246752" fill="red" stroke="none" /><path d="M 101.44485096284872 79.0497635885617 l 1.6902773808408245 -24.508902052916984 a45.56711862355169,45.56711862355169 0 0,0 0.7820398378294287,0.06070134268195209 l -2.1119074080325944 24.476175448046565" fill="red" stroke="none" /><path d="M 102.16513564639614 79.11191278185805 l 2.6312777620101766 -25.38518059111481 a46.52118759588514,46.52118759588514 0 0,0 0.7958075988910618,0.08941825622491503 l -3.0678520644109635 25.336126381419295" fill="red" stroke="none" /><path d="M 105.01212808612495 79.60689891045804 l 5.850736553043458 -23.805190115709866 a45.51363283273635,45.51363283273635 0 0,0 0.7591914773790928,0.19353481168731426 l -6.259636919107575 23.700952307853683" fill="red" stroke="none" /><path d="M 106.0581310904928 79.89281104454417 l 8.287551103255767 -27.50672666569932 a49.72809626742729,49.72809626742729 0 0,0 0.8174698199412113,0.2539918522949182 l -8.759806295907696 27.35999467852188" fill="red" stroke="none" /><path d="M 107.08798089147638 80.2323363322302 l 6.379786132549328 -17.792579928113813 a39.90178752381338,39.90178752381338 0 0,0 0.6445424553021334,0.2373904258053146 l -6.685110913624038 17.680126234502175" fill="red" stroke="none" /><path d="M 107.4271985657038 80.35727306442388 l 9.508306051227578 -25.14663607441213 a47.88421822971121,47.88421822971121 0 0,0 0.7684660797258343,0.2981529000967631 l -9.939755295953079 24.97924047042482" fill="red" stroke="none" /><path d="M 107.76421540070413 80.48803036053334 l 6.726038176532355 -16.90296390830309 a39.19202513294129,39.19202513294129 0 0,0 0.6246763331187034,0.2548211609677472 l -7.015998379239446 16.784681861151764" fill="red" stroke="none" /><line stroke="#e1ed5e" stroke-width="0.3" x1="143.23703022742887" x2="145.7803849466894" y1="26.81831364943548" y2="22.513508569990506" /><path d="M 143.74570117128098 25.957352633546492 a86.0,86.0 0 0,1 28.547481713284135,27.462654790039103" fill="none" id="id26" stroke="none" /><text fill="#e1ed5e" style="font-size:6.75px; font-family:Arial;" text-anchor="middle"><textPath startOffset="19.985693538727396" xlink:href="#id26">February</textPath></text><path d="M 110.68208982089419 81.91981866633111 l 17.96947909759646 -30.414595458711478 a56.32633289709008,56.32633289709008 0 0,0 0.8305128255139278,0.500374684700711 l -18.490353989328025 30.100774164552153" fill="red" stroke="none" /><path d="M 111.90073688211348 82.69761687909136 l 19.85073543572634 -28.860820396504547 a56.028540524813394,56.028540524813394 0 0,0 0.7899193401891778,0.5533889782219703 l -20.344585915499167 28.51484657551864" fill="red" stroke="none" /><path d="M 112.48926042617603 83.11751280151076 l 20.83694314324353 -28.166553812439414 a56.03616636025992,56.03616636025992 0 0,0 0.7705075507219127,0.5803303129070018 l -21.318696847723825 27.803706910026566" fill="red" stroke="none" /><path d="M 114.16331599549186 84.49514656593476 l 23.617980952964594 -25.85505634420773 a56.0184660266088,56.0184660266088 0 0,0 0.7063451507501058,0.656470837346761 l -24.059533987509546 25.444680920786325" fill="red" stroke="none" /><path d="M 117.04232023915458 87.72973835380427 l 22.752507151432198 -16.38152622044978 a49.03624409558557,49.03624409558557 0 0,0 0.4872973959507176,0.6892476085846875 l -23.031117167186796 15.987452111533297" fill="red" stroke="none" /><path d="M 117.65298651832404 88.62581576622439 l 29.502594506746572 -19.009131681247688 a56.096298521418575,56.096298521418575 0 0,0 0.5160122298612795,0.816207427035502 l -29.82543433285381 18.49847660649798" fill="red" stroke="none" /><line stroke="#e1ed5e" stroke-width="0.3" x1="172.23445277983987" x2="176.4835382374775" y1="55.19839476539836" y2="52.563006222186495" /><path d="M 173.08426987136738 54.67131705675599 a86.0,86.0 0 0,1 12.851231095245387,41.99856678651699" fill="none" id="id27" stroke="none" /><text fill="#e1ed5e" style="font-size:6.75px; font-family:Arial;" text-anchor="middle"><textPath startOffset="22.20632615414155" xlink:href="#id27">March</textPath></text><path d="M 118.89224826269711 90.83032412892265 l 25.264975304166313 -12.262787954539862 a49.0837131721954,49.0837131721954 0 0,0 0.3623822639604932,0.7632694669002248 l -25.472315761968563 11.826076071999095" fill="red" stroke="none" /><path d="M 120.18372546131832 94.20196356495316 l 20.928143248739183 -6.011880081634041 a42.77452369067336,42.77452369067336 0 0,0 0.1971971321895094,0.7094230049095137 l -21.028527151495055 5.650745773305576" fill="red" stroke="none" /><path d="M 120.37134235888165 94.90015583598534 l 27.205432327772677 -6.81071786247785 a49.04498931972151,49.04498931972151 0 0,0 0.19797173361289575,0.8207206457169921 l -27.318636861646393 6.341411985101453" fill="red" stroke="none" /><path d="M 120.53481517161879 95.60439243477599 l 34.27278180443756 -7.336306546799166 a56.049179253774184,56.049179253774184 0 0,0 0.19382527908550617,0.9451608964677188 l -34.39398637943806 6.745269994168036" fill="red" stroke="none" /><path d="M 120.78858239683441 97.02765380044208 l 36.32563766569672 -5.193830392138374 a57.695065417052795,57.695065417052795 0 0,0 0.13210521808913187,0.9843373186813963 l -36.40965888284368 4.567774731392314" fill="red" stroke="none" /><path d="M 120.87857604477298 97.74499172005257 l 35.19003020151763 -3.8007290011470305 a56.39468556893652,56.39468556893652 0 0,0 0.0959323935604453,0.9660261113036166 l -35.2502397207603 3.1944273591389787" fill="red" stroke="none" /><line stroke="#e1ed5e" stroke-width="0.3" x1="184.98032266829074" x2="189.97916517819016" y1="98.17113171792111" y2="98.06355123074" /><path d="M 185.9800911702706 98.14961562048488 a86.0,86.0 0 0,1 -9.607161424134198,41.387399972396054" fill="none" id="id28" stroke="none" /><text fill="#e1ed5e" style="font-size:6.75px; font-family:Arial;" text-anchor="middle"><textPath startOffset="21.466115282336823" xlink:href="#id28">April</textPath></text><path d="M 120.99980553446 99.90962569577887 l 30.205024838483503 -0.12998968487019816 a51.20530454757207,51.20530454757207 0 0,0 -0.003793344336975312,0.8814396314114792 l -30.202787196857024 -0.38995942474496575" fill="red" stroke="none" /><path d="M 120.8583938346157 102.4346265915055 l 34.80682646740277 4.0627109620886985 a56.043127558672126,56.043127558672126 0 0,0 -0.1200883884393628,0.9572226118810716 l -34.73173656971656 -4.6612513282571655" fill="red" stroke="none" /><path d="M 120.76222939487914 103.15116336523771 l 35.4021717509299 5.373123692530746 a56.8076000717386,56.8076000717386 0 0,0 -0.15505295119321916,0.9655148750897755 l -35.304437045375394 -5.981717797313727" fill="red" stroke="none" /><path d="M 120.49622156327973 104.57218783832717 l 36.31863456741571 8.101767379958744 a58.21131348824503,58.21131348824503 0 0,0 -0.22657903909372978,0.9760965702913961 l -36.173794962391426 -8.725732607598705" fill="red" stroke="none" /><path d="M 120.32669344350535 105.2749913415812 l 34.572375109701966 8.971895988318986 a56.71755924403506,56.71755924403506 0 0,0 -0.25337063513724495,0.9428863895355065 l -34.412816398222944 -9.565673311030041" fill="red" stroke="none" /><path d="M 120.02730092923936 106.31721596034902 l 33.40788827210932 10.537857584493855 a56.03046447412329,56.03046447412329 0 0,0 -0.2980493838532598,0.9173016819504121 l -33.22154663723981 -11.111358166422063" fill="red" stroke="none" /><path d="M 119.79798401119884 107.00284435728193 l 34.655494423128246 12.258168984909856 a57.75957019027941,57.75957019027941 0 0,0 -0.3396145530126299,0.9344733912441157 l -34.439355609110386 -12.852890173160104" fill="red" stroke="none" /><path d="M 119.54520255179757 107.68017299344265 l 33.374296430913496 13.114234526071845 a56.85842731441662,56.85842731441662 0 0,0 -0.36578213750541694,0.9078412677136825 l -33.14361167915069 -13.686775161628342" fill="red" stroke="none" /><path d="M 118.97047184881838 109.00673069616215 l 33.50906889480347 15.909312210040662 a58.09398756123739,58.09398756123739 0 0,0 -0.43666413080031513,0.8996574450919197 l -33.23025150738844 -16.48375861109786" fill="red" stroke="none" /><path d="M 118.81262510543309 109.33194174019688 l 31.394013329663345 15.572898611516667 a56.04424694736152,56.04424694736152 0 0,0 -0.4361345422364119,0.8605348279271835 l -31.121300117640665 -16.110987651146544" fill="red" stroke="none" /><line stroke="#e1ed5e" stroke-width="0.3" x1="174.80103733775053" x2="179.2010983576182" y1="140.37084112569926" y2="142.7455964860345" /><path d="M 175.68104954172406 140.8457921977663 a86.0,86.0 0 0,1 -30.038265399797805,32.042727171017184" fill="none" id="id29" stroke="none" /><text fill="#e1ed5e" style="font-size:6.75px; font-family:Arial;" text-anchor="middle"><textPath startOffset="22.206326154141568" xlink:href="#id29">May</textPath></text><path d="M 117.14729908036423 112.12312394758627 l 17.415146038236028 12.31249148903086 a42.32802752718932,42.32802752718932 0 0,0 -0.42573975060114894,0.5913152773341335 l -17.200626495259275 -12.610440371816125" fill="red" stroke="none" /><path d="M 116.498646956653 112.99209946851258 l 27.606546027129717 21.73917612207037 a56.1384854826503,56.1384854826503 0 0,0 -0.6043764767617072,0.7540525818917674 l -27.228251638313157 -22.211156537540386" fill="red" stroke="none" /><path d="M 116.27256486870786 113.27417163493432 l 27.337191208882125 22.3000228330037 a56.27907370585952,56.27907370585952 0 0,0 -0.6188125352842412,0.745399562445201 l -26.94928267370434 -22.76728365256267" fill="red" stroke="none" /><path d="M 115.80600337817218 113.82643327865902 l 27.158612297764762 23.75722261293335 a57.08317957471003,57.08317957471003 0 0,0 -0.6533065259388708,0.7339968075472518 l -26.745646922177553 -24.221193590221468" fill="red" stroke="none" /><path d="M 115.56566222782051 114.09645910891815 l 26.391617674718816 23.900580259601742 a56.60555041330207,56.60555041330207 0 0,0 -0.6602729952913137,0.7165959308883876 l -25.97629827143178 -24.351327445291467" fill="red" stroke="none" /><path d="M 114.55890576462653 115.13401014063108 l 24.854784640617353 25.836595749402722 a56.850941402556266,56.850941402556266 0 0,0 -0.7110811946475967,0.6723716529896295 l -24.406367611578947 -26.26060203913827" fill="red" stroke="none" /><path d="M 114.29624159901734 115.38237550388516 l 24.003719413973222 25.82736329393131 a56.259484403795035,56.259484403795035 0 0,0 -0.7150324635302303,0.6531652021787882 l -23.555587400976126 -26.23672126269668" fill="red" stroke="none" /><path d="M 113.75828350139079 115.86535959552629 l 23.98703359803563 27.660639034246955 a57.61268540569233,57.61268540569233 0 0,0 -0.7548208924862697,0.6432747400663449 l -23.50734722897231 -28.069438164536248" fill="red" stroke="none" /><path d="M 112.92097659922987 116.55440617244103 l 33.05422200595023 42.349199582418 a74.7218419052262,74.7218419052262 0 0,0 -1.0207404665076372,0.78266026311165 l -32.3203528109491 -42.91189918735702" fill="red" stroke="none" /><path d="M 112.34349029814194 116.9893568818739 l 20.798573106736306 28.626779995709807 a56.384646051628465,56.384646051628465 0 0,0 -0.7901171648527403,0.5637276182105753 l -20.30272861403468 -28.980551875764604" fill="red" stroke="none" /><line stroke="#e1ed5e" stroke-width="0.3" x1="143.8653032363475" x2="146.44561519142675" y1="172.8068346515853" y2="177.08958963109032" /><path d="M 144.38136562736335 173.6633856474863 a86.0,86.0 0 0,1 -40.68145358897372,12.25698825130547" fill="none" id="id30" stroke="none" /><text fill="#e1ed5e" style="font-size:6.75px; font-family:Arial;" text-anchor="middle"><textPath startOffset="21.466115282336833" xlink:href="#id30">June</textPath></text><path d="M 110.21172684928248 118.3499491758327 l 13.64283708723147 24.5154782202633 a49.055938340339694,49.055938340339694 0 0,0 -0.7413921796000933,0.40426612935676537 l -13.218822095762729 -24.746685001379838" fill="red" stroke="none" /><path d="M 109.89434966115114 118.52300852407294 l 17.0885492136056 31.991121558041844 a57.26913802073645,57.26913802073645 0 0,0 -0.8735155196432213,0.45698203498428663 l -16.535342791435884 -32.280533011970846" fill="red" stroke="none" /><path d="M 108.92500713936063 119.00905698771935 l 26.775021418081884 57.02717096315804 a84.0,84.0 0 0,0 -1.3141280169303222,0.6032517186637025 l -25.789425405384144 -57.479609752155824" fill="red" stroke="none" /><path d="M 108.2653958097858 119.30500536409082 l 13.811895899632535 32.25964376866062 a56.09206583293679,56.09206583293679 0 0,0 -0.8908716595729398,0.3723844259533197 l -13.254552780562134 -32.492613237633904" fill="red" stroke="none" /><path d="M 107.93186726928326 119.44442032107085 l 6.80166901267773 16.67381798980349 a39.00774576994897,39.00774576994897 0 0,0 -0.6238990321544239,0.2482623007028332 l -6.513648904481441 -16.788427134912393" fill="red" stroke="none" /><path d="M 107.2578585660854 119.70592522655815 l 12.45021425313039 33.80377130428763 a57.02364208879262,57.02364208879262 0 0,0 -0.9240014278317666,0.3313140376243244 l -11.86649326466889 -34.01307288295192" fill="red" stroke="none" /><path d="M 106.2309692047433 120.05430185196036 l 10.636748864652526 34.23425240055028 a56.84863266338438,56.84863266338438 0 0,0 -0.9369873539833806,0.28230660353072534 l -10.0458865362289 -34.41227437318673" fill="red" stroke="none" /><path d="M 104.48393922423573 120.51570834832081 l 7.491418598170844 34.27605758895085 a56.08517459631767,56.08517459631767 0 0,0 -0.9449244599714918,0.19801810791546096 l -6.900302676769974 -34.399931677592846" fill="red" stroke="none" /><path d="M 103.7750983002368 120.6578951692458 l 6.3815840826060315 34.92097013313094 a56.499278449602244,56.499278449602244 0 0,0 -0.9582036252815658,0.1665959825779454 l -5.779531485852416 -35.0256446942299" fill="red" stroke="none" /><path d="M 101.98527174616119 120.90594882070398 l 3.3517600847025637 35.29578503575846 a56.454572863819365,56.454572863819365 0 0,0 -0.9682112003037481,0.08354133638246976 l -2.743704566657274 -35.3482506244196" fill="red" stroke="none" /><line stroke="#e1ed5e" stroke-width="0.3" x1="102.19456741930631" x2="102.32365962044197" y1="184.97166512339345" y2="189.96999836594603" /><path d="M 102.22038585953345 185.97133177190398 a86.0,86.0 0 0,1 -42.740103519485714,-10.115201625700543" fill="none" id="id31" stroke="none" /><text fill="#e1ed5e" style="font-size:6.75px; font-family:Arial;" text-anchor="middle"><textPath startOffset="22.20632615414155" xlink:href="#id31">July</textPath></text><path d="M 98.73552117531835 120.96189622390904 l -0.2218454606136258 3.6776428615156185 a24.684327947570853,24.684327947570853 0 0,0 -0.4239089468114025,-0.02923524288376267 l 0.2851171682039584 -3.6732792741155706" fill="red" stroke="none" /><path d="M 96.58105272829116 120.7198165907248 l -0.5763590802214322 3.4929039507000303 a24.540136692017636,24.540136692017636 0 0,0 -0.41619023443231273,-0.07236000701231168 l 0.6363982861257949 -3.4824653651667123" fill="red" stroke="none" /><path d="M 95.51606077576429 120.51570834832081 l -3.887925707789536 17.788722351504344 a39.20864105879956,39.20864105879956 0 0,0 -0.6581074258530734,-0.1497831075103299 l 4.193553283035472 -17.71916251041633" fill="red" stroke="none" /><path d="M 94.81253420990036 120.34920634021253 l -4.489763777696273 17.612285695555144 a39.1755491306692,39.1755491306692 0 0,0 -0.6520108966322351,-0.17220200383539613 l 4.792265117139997 -17.532392342416166" fill="red" stroke="none" /><path d="M 93.08242187328487 119.8279376855182 l -11.576436207041437 33.18167883744478 a56.14310296099408,56.14310296099408 0 0,0 -0.9097333211036933,-0.3261980021865578 l 12.145889088774858 -32.97749329421826" fill="red" stroke="none" /><path d="M 92.06813273071674 119.44442032107085 l -3.976320911453572 9.747673846382122 a31.527500814832788,31.527500814832788 0 0,0 -0.5007295872601785,-0.2093050080851273 l 4.143521958211213 -9.677783795277023" fill="red" stroke="none" /><path d="M 91.40352486487194 119.15986991738527 l -14.415050195843172 32.12834124027513 a56.21397425739165,56.21397425739165 0 0,0 -0.8794328394599794,-0.4037044831391505 l 14.96595103107057 -31.8754496868019" fill="red" stroke="none" /><line stroke="#e1ed5e" stroke-width="0.3" x1="58.666819895761336" x2="56.23545636021788" y1="174.27360380694188" y2="178.64263932499728" /><path d="M 58.180547188652646 175.14741091055294 a86.0,86.0 0 0,1 -31.652253787137756,-30.449443065178592" fill="none" id="id32" stroke="none" /><text fill="#e1ed5e" style="font-size:6.75px; font-family:Arial;" text-anchor="middle"><textPath startOffset="22.20632615414155" xlink:href="#id32">August</textPath></text><path d="M 89.7882731507175 118.34994917583269 l -17.051454097642434 30.640588088954576 a56.06562027514973,56.06562027514973 0 0,0 -0.8392522317533658,-0.47654932032735514 l 17.57635509631701 -30.342535602832587" fill="red" stroke="none" /><path d="M 88.24862548938628 117.40417183066458 l -19.606077815493144 29.037245550980487 a56.0365511501219,56.0365511501219 0 0,0 -0.794766712835289,-0.5466477921579098 l 20.103001412951322 -28.695456969457478" fill="red" stroke="none" /><path d="M 87.36589467227662 116.77436683061367 l -21.076938182903916 27.983959574121048 a56.03340286943297,56.03340286943297 0 0,0 -0.7654463584757593,-0.5869116273720376 l 21.555513269873163 -27.617008604921644" fill="red" stroke="none" /><path d="M 86.79598089348748 116.32954008644616 l -22.659630344329642 28.02338735402767 a57.038439008030615,57.038439008030615 0 0,0 -0.7581491499201521,-0.6239051358529343 l 23.138649622794485 -27.62918709931755" fill="red" stroke="none" /><path d="M 86.24171649860922 115.8653595955263 l -18.737377670668597 21.607000218616776 a49.59985630069801,49.59985630069801 0 0,0 -0.6402104926208839,-0.5649113237403283 l 19.106530516196067 -21.281265753104158" fill="red" stroke="none" /><path d="M 85.44109423537348 115.13401014063109 l -25.099095247668338 26.09055708855483 a57.20333895433771,57.20333895433771 0 0,0 -0.7037373972912729,-0.6887551603376024 l 25.544482597335406 -25.65465182529466" fill="red" stroke="none" /><line stroke="#e1ed5e" stroke-width="0.3" x1="26.63291911575756" x2="22.317208475507996" y1="142.92168965132927" y2="145.44649492493687" /><path d="M 25.769776987707644 143.4266507060508 a86.0,86.0 0 0,1 -11.730757126820373,-40.83630448921669" fill="none" id="id33" stroke="none" /><text fill="#e1ed5e" style="font-size:6.75px; font-family:Arial;" text-anchor="middle"><textPath startOffset="21.46611528233685" xlink:href="#id33">September</textPath></text><line stroke="#e1ed5e" stroke-width="0.3" x1="15.007084014347285" x2="10.007500721073583" y1="101.09737516637583" y2="101.16192664675087" /><path d="M 14.007167355692545 101.11028546245083 a86.0,86.0 0 0,1 10.666146001902534,-42.60595125391555" fill="none" id="id34" stroke="none" /><text fill="#e1ed5e" style="font-size:6.75px; font-family:Arial;" text-anchor="middle"><textPath startOffset="22.20632615414155" xlink:href="#id34">October</textPath></text><line stroke="#e1ed5e" stroke-width="0.3" x1="26.266209847984243" x2="21.928928074336255" y1="57.711370442889674" y2="55.22380399835377" /><path d="M 25.398753493254645 57.213857153982495 a86.0,86.0 0 0,1 29.58750427330803,-30.492523968695096" fill="none" id="id35" stroke="none" /><text fill="#e1ed5e" style="font-size:6.75px; font-family:Arial;" text-anchor="middle"><textPath startOffset="21.46611528233685" xlink:href="#id35">November</textPath></text><line stroke="#e1ed5e" stroke-width="0.3" x1="56.762969772571076" x2="54.21961505331055" y1="26.818313649435495" y2="22.513508569990535" /><path d="M 56.25429882871897 25.957352633546506 a86.0,86.0 0 0,1 42.265352541879196,-11.944610805530505" fill="none" id="id36" stroke="none" /><text fill="#e1ed5e" style="font-size:6.75px; font-family:Arial;" text-anchor="middle"><textPath startOffset="22.20632615414155" xlink:href="#id36">December</textPath></text></svg>