<?xml version="1.0" encoding="utf-8" ?>
<svg baseProfile="full" height="200mm" version="1.1" viewBox="0,0,200,200" width="200mm" xmlns="http://www.w3.org/2000/svg" xmlns:ev="http://www.w3.org/2001/xml-events" xmlns:xlink="http://www.w3.org/1999/xlink"><defs /><rect fill="#1a1a1a" height="200" width="200" x="0" y="0" /><rect fill="#1a1a1a" height="200" width="180" x="10" y="0" /><text alignment-baseline="middle" fill="#e1ed5e" style="dominant-baseline: central; font-size:9.0px; font-family:Arial;" text-anchor="middle" x="100.0" y="100.0">2024</text><line stroke="#e1ed5e" stroke-width="0.3" x1="100.0" x2="100.0" y1="15.0" y2="10.0" /><path d="M 100.0 14.0 a86.0,86.0 0 0,1 42.35913384403234,11.155469271406648" fill="none" id="id13" stroke="none" /><text fill="#e1ed5e" style="font-size:6.75px; font-family:Arial;" text-anchor="middle"><textPath startOffset="22.145653131862478" xlink:href="#id13">January</textPath></text><path d="M 101.44090949804482 79.04949213459386 l 1.709533982623457 -24.856248916209086 a45.91496772268208,45.91496772268208 0 0,0 0.7858696668298252,0.06083128239976437 l -2.1359726442285156 24.82323986681427" fill="red" stroke="none" /><path d="M 102.15924093988457 79.11130261209362 l 2.609936319834048 -25.248766351027946 a46.38330100365967,46.38330100365967 0 0,0 0.7913081673740473,0.08866773066515109 l -3.042980388808892 25.200242859855823" fill="red" stroke="none" /><path d="M 103.23170211078529 79.25015418208739 l 4.464351018713645 -28.664336049475555 a50.00990505285313,50.00990505285313 0 0,0 0.8471261094037991,0.13939427893310416 l -4.955754631170514 28.583475772046782" fill="red" stroke="none" /><path d="M 103.94208987418118 79.37332000966035 l 5.477739971967132 -28.661850205920842 a50.1805978764509,50.1805978764509 0 0,0 0.8447151289277711,0.16896668341249013 l -5.9689515864258595 28.56359412584549" fill="red" stroke="none" /><path d="M 106.04205211174951 79.88797359093562 l 9.517771842218945 -31.681566975219237 a54.08035167355145,54.08035167355145 0 0,0 0.8868131274468501,0.27473697376909495 l -10.060225602537425 31.513513413643494" fill="red" stroke="none" /><path d="M 106.72888874123014 80.10723608172694 l 11.213145566438808 -33.14967242178221 a55.994791257637395,55.994791257637395 0 0,0 0.907900153274743,0.3158148021213886 l -11.780551491758569 32.95229918709224" fill="red" stroke="none" /><path d="M 108.07796709384702 80.6158196554323 l 15.880671498858371 -38.10783044179313 a62.28440950570939,62.28440950570939 0 0,0 0.9833964550387948,0.41975347028822957 l -16.532503029067595 37.829602321845506" fill="red" stroke="none" /><path d="M 110.02825361518725 81.54914285379988 l 19.70710842751134 -36.25885984873933 a62.268329746964675,62.268329746964675 0 0,0 0.934783468883,0.5185086325571057 l -20.32663608455044 35.915218300749075" fill="red" stroke="none" /><line stroke="#e1ed5e" stroke-width="0.3" x1="143.13028292997686" x2="145.6673583964461" y1="26.7553504044142" y2="22.446841604673864" /><path d="M 143.63769802327073 25.89364864446614 a86.0,86.0 0 0,1 29.32050498858742,28.57503671076993" fill="none" id="id14" stroke="none" /><text fill="#e1ed5e" style="font-size:6.75px; font-family:Arial;" text-anchor="middle"><textPath startOffset="20.669276256404974" xlink:href="#id14">February</textPath></text><path d="M 112.7482090630111 83.31218511350987 l 38.24462718903332 -50.063444659470385 a84.0,84.0 0 0,0 1.138360221459096,0.8851957935168366 l -39.09839735512764 49.399547814332756" fill="red" stroke="none" /><path d="M 113.59037401385872 83.9905735841838 l 26.7323213983865 -31.49060738983325 a62.307086088554506,62.307086088554506 0 0,0 0.809459601959033,0.6991919250377947 l -27.268960480108394 31.02707133233074" fill="red" stroke="none" /><line stroke="#e1ed5e" stroke-width="0.3" x1="172.87174338648825" x2="177.1583165268699" y1="56.24261187166439" y2="53.66864786411523" /><path d="M 173.72905801456457 55.72781907015455 a86.0,86.0 0 0,1 12.242430191666344,42.057860355516425" fill="none" id="id15" stroke="none" /><text fill="#e1ed5e" style="font-size:6.75px; font-family:Arial;" text-anchor="middle"><textPath startOffset="22.145653131862474" xlink:href="#id15">March</textPath></text><path d="M 120.86939407059847 97.66154086499901 l 20.582987720853932 -2.3063667061256306 a41.71180124711389,41.71180124711389 0 0,0 0.07362650845289379,0.7122696806975344 l -20.61954662178849 1.9526925031451647" fill="red" stroke="none" /><path d="M 120.96210409425399 98.7389718711861 l 20.737229086850228 -1.247500206782405 a41.77471845697143,41.77471845697143 0 0,0 0.03691773216478889,0.7161941413454959 l -20.75558840847159 0.8913342720601785" fill="red" stroke="none" /><line stroke="#e1ed5e" stroke-width="0.3" x1="184.99686870605535" x2="189.99668451229388" y1="99.2704041080226" y2="99.22748670261217" /><path d="M 185.99683186730306 99.26182062694052 a86.0,86.0 0 0,1 -10.086455211305974,41.156179273409016" fill="none" id="id16" stroke="none" /><text fill="#e1ed5e" style="font-size:6.75px; font-family:Arial;" text-anchor="middle"><textPath startOffset="21.40746469413373" xlink:href="#id16">April</textPath></text><path d="M 120.82617615685814 102.69636545807757 l 20.521349591978804 2.6568995564135074 a41.69262922707211,41.69262922707211 0 0,0 -0.09798856531364365,0.7089964456603001 l -20.47271651010995 -3.0087843102738927" fill="red" stroke="none" /><path d="M 120.43855184770803 104.8234425847677 l 20.17182211697681 4.760495094582542 a41.72594318877911,41.72594318877911 0 0,0 -0.17050506635569773,0.695718855727826 l -20.087129524104817 -5.106069774918469" fill="red" stroke="none" /><line stroke="#e1ed5e" stroke-width="0.3" x1="174.33088141563837" x2="178.70328620479359" y1="141.23008692659167" y2="143.65538615756765" /><path d="M 175.20536237346943 141.71514677278685 a86.0,86.0 0 0,1 -30.301960400862466,31.631185727798858" fill="none" id="id17" stroke="none" /><text fill="#e1ed5e" style="font-size:6.75px; font-family:Arial;" text-anchor="middle"><textPath startOffset="22.145653131862474" xlink:href="#id17">May</textPath></text><line stroke="#e1ed5e" stroke-width="0.3" x1="143.1302829299769" x2="145.66735839644613" y1="173.24464959558577" y2="177.55315839532614" /><path d="M 143.63769802327073 174.10635135553383 a86.0,86.0 0 0,1 -40.68552437913181,11.842963189579606" fill="none" id="id18" stroke="none" /><text fill="#e1ed5e" style="font-size:6.75px; font-family:Arial;" text-anchor="middle"><textPath startOffset="21.407464694133747" xlink:href="#id18">June</textPath></text><path d="M 110.02825361518725 118.45085714620011 l 9.877279309971726 18.173081429193925 a41.68384720498845,41.68384720498845 0 0,0 -0.6316317324605585,0.336308320736434 l -9.563858761724614 -18.339960217652926" fill="red" stroke="none" /><path d="M 109.06512990194946 118.94263497670748 l 8.927569648968781 18.65518695470438 a41.68133216580018,41.68133216580018 0 0,0 -0.6480678749049702,0.3033284883208532 l -8.606013060192305 -18.805691674595767" fill="red" stroke="none" /><path d="M 108.4095320186766 119.2426549942271 l 9.939255308470338 22.742961246318334 a45.81997345563636,45.81997345563636 0 0,0 -0.7234426692624242,0.3087946569478928 l -9.547377564037483 -22.91023055292563" fill="red" stroke="none" /><path d="M 107.06938296918513 119.77432235084164 l 4.411951977798117 12.341014906916229 a34.1059516704101,34.1059516704101 0 0,0 -0.5529942706040993,0.19236011307539394 l -4.199451935148996 -12.414933452560213" fill="red" stroke="none" /><path d="M 106.0420521117495 120.11202640906438 l 7.165061263498255 23.850158636303988 a45.90317589960262,45.90317589960262 0 0,0 -0.7566154636920656,0.2202397344488399 l -6.754585787424582 -23.969642065055346" fill="red" stroke="none" /><path d="M 101.44090949804482 120.95050786540614 l 1.424863432828711 20.7172015987912 a41.766142585640914,41.766142585640914 0 0,0 -0.7157039190039832,0.04305497051766862 l -1.0690151616922625 -20.738608547133563" fill="red" stroke="none" /><line stroke="#e1ed5e" stroke-width="0.3" x1="101.45913802915013" x2="101.54496967792366" y1="184.9874750549273" y2="189.98673829345242" /><path d="M 101.47630435890484 185.9873277026323 a86.0,86.0 0 0,1 -42.54439059252881,-10.42667462771756" fill="none" id="id19" stroke="none" /><text fill="#e1ed5e" style="font-size:6.75px; font-family:Arial;" text-anchor="middle"><textPath startOffset="22.145653131862474" xlink:href="#id19">July</textPath></text><path d="M 98.91894614982273 120.97215588758144 l -1.2758908542074603 24.75194171464317 a45.78480413715111,45.78480413715111 0 0,0 -0.7845676359649316,-0.0471976407263425 l 1.7006028423048383 -24.726392096092138" fill="red" stroke="none" /><path d="M 94.6519064749342 120.30758222061772 l -6.315911382810727 23.98254426618053 a45.80026544363642,45.80026544363642 0 0,0 -0.7585801982583197,-0.20675440629160724 l 6.726672982003742 -23.870589365744777" fill="red" stroke="none" /><path d="M 93.61358852112213 120.00534299687104 l -6.301674941946935 19.73990700182483 a41.721366642059465,41.721366642059465 0 0,0 -0.6804104490079658,-0.22366442925768992 l 6.639608128602644 -19.628821651165115" fill="red" stroke="none" /><path d="M 92.93061703081489 119.77432235084164 l -8.345696012666004 23.344397087545893 a45.79135973110088,45.79135973110088 0 0,0 -0.7379187092149176,-0.2709739712628674 l 8.74520387353504 -23.197692267274306" fill="red" stroke="none" /><path d="M 92.25597844496254 119.51999308798841 l -7.724651466410076 19.471167811168982 a41.94747278810058,41.94747278810058 0 0,0 -0.6670557810438842,-0.27128577899606976 l 8.057761708644401 -19.33569477559362" fill="red" stroke="none" /><path d="M 90.6110303473126 118.78422872680471 l -12.967641494975734 25.943969668610677 a50.00429775236779,50.00429775236779 0 0,0 -0.764524705029238,-0.3903717618421222 l 13.411093421718553 -25.717539955095717" fill="red" stroke="none" /><path d="M 89.97174638481275 118.45085714620012 l -10.208249324404823 18.78202897782121 a42.376926037036455,42.376926037036455 0 0,0 -0.6361701057740343,-0.3528728337619843 l 10.52916361833496 -18.604023228626076" fill="red" stroke="none" /><line stroke="#e1ed5e" stroke-width="0.3" x1="58.13341422392154" x2="55.67067388415222" y1="173.97424548756322" y2="178.32567169271397" /><path d="M 57.64086615596768 174.84453072859336 a86.0,86.0 0 0,1 -31.369924170532247,-30.572349798747897" fill="none" id="id20" stroke="none" /><text fill="#e1ed5e" style="font-size:6.75px; font-family:Arial;" text-anchor="middle"><textPath startOffset="22.145653131862474" xlink:href="#id20">August</textPath></text><path d="M 89.34428304082925 118.09573695890944 l -10.631909087943233 18.055305988667314 a41.95308008858592,41.95308008858592 0 0,0 -0.6174439436621303,-0.37075734756366024 l 10.940285788162791 -17.870134640567734" fill="red" stroke="none" /><path d="M 88.1277618465304 117.32195027204791 l -16.354303151459543 23.86141705225053 a49.92802197370695,49.92802197370695 0 0,0 -0.7028080182577086,-0.4906145795652316 l 16.761506260891014 -23.57715765688017" fill="red" stroke="none" /><path d="M 87.2517909369889 116.68781488649013 l -20.06305641623422 26.26318488161375 a54.0496764414846,54.0496764414846 0 0,0 -0.7324762100442903,-0.5695779312731872 l 20.51094257091374 -25.914905898719766" fill="red" stroke="none" /><path d="M 86.13680546590413 115.77377054828092 l -15.096068824576813 17.176555175236278 a43.8675609028225,43.8675609028225 0 0,0 -0.5613689429782927,-0.5019795703838723 l 15.388702794378476 -16.914880074969023" fill="red" stroke="none" /><path d="M 84.3458050057657 113.99807769240083 l -16.123142225967438 14.41741319868872 a42.629089638274145,42.629089638274145 0 0,0 -0.4831072232107882,-0.549687337244103 l 16.36826051313682 -14.138513583633317" fill="red" stroke="none" /><path d="M 82.78059297857968 112.02048342749411 l -10.344436993289676 7.221220410779226 a33.61560148899744,33.61560148899744 0 0,0 -0.32624783745636765,-0.47600534488358626 l 10.46687456756137 -7.042580330825589" fill="red" stroke="none" /><line stroke="#e1ed5e" stroke-width="0.3" x1="26.387840678322732" x2="22.057713659400534" y1="142.50000000000003" y2="145.00000000000006" /><path d="M 25.521815274538284 143.00000000000003 a86.0,86.0 0 0,1 -11.493303480769212,-40.785679425670985" fill="none" id="id21" stroke="none" /><text fill="#e1ed5e" style="font-size:6.75px; font-family:Arial;" text-anchor="middle"><textPath startOffset="21.40746469413373" xlink:href="#id21">September</textPath></text><path d="M 80.68587082218212 108.24405325689762 l -22.89948523700608 9.774428560115277 a45.89831074182858,45.89831074182858 0 0,0 -0.3030909275869063,-0.727307889830599 l 23.06390200912947 -9.379888160843397" fill="red" stroke="none" /><path d="M 80.28708602549918 107.23885506374661 l -23.317107279041284 8.56236476845301 a45.83951654703379,45.83951654703379 0 0,0 -0.2649083777817081,-0.7409958801960141 l 23.460655826866937 -8.160833931876073" fill="red" stroke="none" /><path d="M 80.05021161711548 106.5578916946017 l -23.709233206274234 7.793695880112357 a45.95735231752714,45.95735231752714 0 0,0 -0.23993082778366304,-0.751579900733024 l 23.839528749835154 -7.385546945687941" fill="red" stroke="none" /><path d="M 79.56144815229197 104.8234425847677 l -24.209164025857397 5.713296791966286 a45.874191103711496,45.874191103711496 0 0,0 -0.17429819928114784,-0.7679900262087965 l 24.30367308669621 -5.296872431818463" fill="red" stroke="none" /><path d="M 79.407916724674 104.11899336999214 l -24.38673424077675 4.878029838480705 a45.869820707744985,45.869820707744985 0 0,0 -0.1478181352212286,-0.7734469454759167 l 24.466878668280135 -4.458680327971474" fill="red" stroke="none" /><path d="M 79.22317932658666 103.0534771498775 l -24.5716979788613 3.6111934300012334 a45.8356409128748,45.8356409128748 0 0,0 -0.10772572458364835,-0.7794496795776235 l 24.630068220000165 -3.1888554422235242" fill="red" stroke="none" /><path d="M 79.00696218219943 100.54070618675478 l -41.65032617735786 1.0727646584505115 a62.66413919298852,62.66413919298852 0 0,0 -0.01846672912888202,-1.075594391917014 l 41.66260433808541 -0.3576233505644454" fill="red" stroke="none" /><line stroke="#e1ed5e" stroke-width="0.3" x1="15.003131293944662" x2="10.003315487706104" y1="100.72959589197737" y2="100.7725132973878" /><path d="M 14.003168132696942 100.73817937305945 a86.0,86.0 0 0,1 10.791469493833604,-42.45332614584628" fill="none" id="id22" stroke="none" /><text fill="#e1ed5e" style="font-size:6.75px; font-family:Arial;" text-anchor="middle"><textPath startOffset="22.145653131862435" xlink:href="#id22">October</textPath></text><path d="M 79.01933749520258 99.09900007780938 l -21.471302614851776 -0.9220701196108181 a42.49109232412396,42.49109232412396 0 0,0 0.03755081598999358,-0.7284757984247099 l 21.452310209405216 1.29051771141224" fill="red" stroke="none" /><path d="M 79.17382384314186 97.30363454192245 l -24.69688064213469 -3.1975056479000976 a45.903010979000115,45.903010979000115 0 0,0 0.1078840618304834,-0.7805953290200777 l 24.638352063749 3.6209892851202423" fill="red" stroke="none" /><line stroke="#e1ed5e" stroke-width="0.3" x1="26.387840678322718" x2="22.05771365940052" y1="57.49999999999999" y2="54.99999999999999" /><path d="M 25.521815274538284 56.99999999999999 a86.0,86.0 0 0,1 29.574782752854787,-30.34633250058573" fill="none" id="id23" stroke="none" /><text fill="#e1ed5e" style="font-size:6.75px; font-family:Arial;" text-anchor="middle"><textPath startOffset="21.40746469413373" xlink:href="#id23">November</textPath></text><path d="M 89.03521579738668 82.08984904055464 l -10.7846842594735 -17.615971237362643 a41.65506855985047,41.65506855985047 0 0,0 0.6130579626287653,-0.3681236919725945 l 10.480693540287302 17.79850892987116" fill="red" stroke="none" /><line stroke="#e1ed5e" stroke-width="0.3" x1="56.869717070023135" x2="54.33264160355391" y1="26.7553504044142" y2="22.446841604673864" /><path d="M 56.362301976729285 25.89364864446614 a86.0,86.0 0 0,1 42.16139366436587,-11.88097634709845" fill="none" id="id24" stroke="none" /><text fill="#e1ed5e" style="font-size:6.75px; font-family:Arial;" text-anchor="middle"><textPath startOffset="22.145653131862474" xlink:href="#id24">December</textPath></text><path d="M 97.12497278360702 79.19773525538626 l -4.347215954936244 -31.454289086712965 a52.75327681530463,52.75327681530463 0 0,0 0.8981174490193137,-0.11627928471329416 l 3.8066206840261367 31.52427996762665" fill="red" stroke="none" /></svg>